<?xml version="1.0" encoding="UTF-8"?>
<svg version="1.1" xmlns="http://www.w3.org/2000/svg" width="1024" height="1024">
<path d="M0 0 C337.92 0 675.84 0 1024 0 C1024 337.92 1024 675.84 1024 1024 C686.08 1024 348.16 1024 0 1024 C0 686.08 0 348.16 0 0 Z " fill="#FEFEFE" transform="translate(0,0)"/>
<path d="M0 0 C0.66 0.33 1.32 0.66 2 1 C2.73549049 3.4051193 3.34450345 5.75624374 3.90087891 8.2043457 C4.08068047 8.96496874 4.26048203 9.72559177 4.44573212 10.50926399 C5.04728191 13.0629778 5.63685331 15.61930938 6.2265625 18.17578125 C6.64923855 19.98056475 7.07266476 21.78517271 7.49679565 23.58961487 C8.64253432 28.4731195 9.77809797 33.3589408 10.91201782 38.24520111 C12.11025749 43.40011145 13.31820162 48.55274591 14.52539062 53.70556641 C16.46827901 62.00304369 18.40645991 70.30160486 20.34082031 78.60107422 C23.41071699 91.77078447 26.50730109 104.93410409 29.60971069 118.09619141 C30.51597244 121.9427946 31.4209655 125.78969491 32.32543945 129.63671875 C36.7340095 148.38641062 41.15265006 167.13372294 45.57392931 185.88042164 C46.05185552 187.9068988 46.52976615 189.93337964 47.00767136 191.95986176 C51.34916303 210.36932881 51.34916303 210.36932881 55.69189453 228.77850342 C57.50984327 236.48375096 59.32728823 244.18911724 61.14453125 251.89453125 C61.4378364 253.13797617 61.73114155 254.38142109 62.03333473 255.66254616 C65.07856732 268.57411664 68.11781054 281.48702195 71.13354492 294.40551758 C71.38174138 295.4682895 71.62993784 296.53106142 71.8856554 297.62603855 C73.02964797 302.52562439 74.17209701 307.42555942 75.31135559 312.32624817 C79.27569656 329.3455308 83.40611873 346.33001343 87.7535553 363.25584984 C88.7374434 367.25600468 89.18490355 370.8827876 89 375 C89.66 375 90.32 375 91 375 C91.22171875 374.32195312 91.4434375 373.64390625 91.671875 372.9453125 C93.38171425 369.15349251 95.71322499 366.15210912 98.25 362.875 C99.34198247 361.44204342 100.43309274 360.00842187 101.5234375 358.57421875 C102.09416992 357.82575684 102.66490234 357.07729492 103.25292969 356.30615234 C106.16543312 352.46161525 109.01969841 348.57460649 111.875 344.6875 C113.05856003 343.0781002 114.24215405 341.4687254 115.42578125 339.859375 C116.01568848 339.05693359 116.6055957 338.25449219 117.21337891 337.42773438 C118.98714006 335.01747461 120.76443644 332.60986576 122.54296875 330.203125 C128.23545025 322.497218 133.90125203 314.77433917 139.5 307 C149.66787767 292.89060706 159.99708613 278.91494506 170.58325195 265.1159668 C174.14431257 260.46852694 177.62932437 255.78752392 181 251 C184.27648203 253.6503718 185.42943226 257.07359542 186.86328125 260.90234375 C187.13113937 261.59781815 187.3989975 262.29329254 187.67497253 263.00984192 C188.56146971 265.3163279 189.43678546 267.62690101 190.3125 269.9375 C190.94184584 271.57943241 191.57206968 273.22102853 192.203125 274.86230469 C193.50822344 278.25892447 194.80956712 281.65694476 196.10791016 285.05615234 C198.60681636 291.59322519 201.1396047 298.11699893 203.67822266 304.63873291 C204.51658199 306.79260159 205.35401296 308.94682979 206.19140625 311.10107422 C211.70115643 325.26687719 217.25590704 339.41502024 222.8125 353.5625 C223.28044983 354.75446991 223.74839966 355.94643982 224.23052979 357.17453003 C229.19130194 369.80914044 234.16630585 382.43769648 239.19140625 395.046875 C239.9931307 397.06174847 240.79480846 399.07664052 241.59643555 401.09155273 C243.08305248 404.82776306 244.5763468 408.56120862 246.07348633 412.29321289 C246.73413098 413.95188841 247.39454594 415.61065544 248.0546875 417.26953125 C248.35665543 418.01672424 248.65862335 418.76391724 248.96974182 419.53375244 C250.14824146 422.50878158 251 424.76874643 251 428 C251.66 428 252.32 428 253 428 C253.25869873 427.29472168 253.51739746 426.58944336 253.78393555 425.86279297 C255.09931164 422.76620593 256.6869387 420.05630551 258.45703125 417.1953125 C259.15818004 416.0543978 259.85926797 414.9134457 260.56030273 413.77246094 C260.92759491 413.17784058 261.29488708 412.58322021 261.67330933 411.97058105 C267.62089498 402.33501112 273.42259789 392.64159553 278.9375 382.75 C282.44431948 376.46527966 286.00434242 370.25549153 289.875 364.1875 C298.17522294 351.15766469 305.66521513 337.62516101 313.3008728 324.19934082 C314.40292342 322.26177167 315.50584444 320.32470005 316.60888672 318.38769531 C318.01246794 315.92287362 319.41201239 313.45582192 320.80908203 310.98730469 C321.44442871 309.87000977 322.07977539 308.75271484 322.734375 307.6015625 C323.29350586 306.61494629 323.85263672 305.62833008 324.42871094 304.61181641 C325.83143012 302.28019897 327.32082536 300.13787909 329 298 C331.79058063 299.29190732 334.01067907 300.69736435 336.3203125 302.72265625 C336.93293945 303.25665039 337.54556641 303.79064453 338.17675781 304.34082031 C338.81967773 304.90897461 339.46259766 305.47712891 340.125 306.0625 C341.12805176 306.93986816 341.12805176 306.93986816 342.15136719 307.83496094 C345.88219315 311.10594508 349.57727252 314.4138408 353.25 317.75 C356.50010013 320.7007488 359.82617333 323.50297627 363.25 326.25 C367.67933543 329.82850264 371.85694216 333.60005558 376 337.5 C383.00717483 344.0932974 390.26686081 350.26250963 398 356 C398.89138672 355.18208984 398.89138672 355.18208984 399.80078125 354.34765625 C405.17149675 349.46139098 410.66070154 344.78539391 416.3046875 340.21875 C420.30498692 336.9257499 424.16109003 333.47871594 428 330 C432.40458964 331.60071785 434.79727914 334.934782 437.6875 338.4375 C438.18572266 339.02337891 438.68394531 339.60925781 439.19726562 340.21289062 C441.34784554 342.78366525 442.93090515 344.79271544 444 348 C439.27754291 353.01257391 434.18520789 357.36456664 428.82421875 361.6796875 C426.14206334 363.88328406 423.56373579 366.16043825 421 368.5 C413.360681 375.44814252 405.33678631 381.90865184 397 388 C396.33355469 387.38253906 395.66710937 386.76507812 394.98046875 386.12890625 C390.27205593 381.80243461 385.5467545 377.57315377 380.5625 373.5625 C376.56773566 370.34054925 372.75468333 366.99322017 369 363.5 C364.48216043 359.30093919 359.82560711 355.34111228 355.015625 351.48046875 C352.65453686 349.538382 350.34347767 347.5671633 348.046875 345.55078125 C347.02654175 344.65528564 347.02654175 344.65528564 345.9855957 343.74169922 C344.63672277 342.55345616 343.29140404 341.36116431 341.94995117 340.16455078 C338.92481899 337.08494808 338.92481899 337.08494808 335 336 C333.41280072 338.19670363 333.41280072 338.19670363 331.796875 341.0625 C331.15363281 342.15691406 330.51039063 343.25132812 329.84765625 344.37890625 C329.14830315 345.58585966 328.44908802 346.79289303 327.75 348 C327.02539801 349.23866666 326.30012976 350.47694378 325.57421875 351.71484375 C323.72369256 354.87454817 321.88175044 358.03915756 320.04272461 361.20556641 C318.49548209 363.86822913 316.94297762 366.52781411 315.390625 369.1875 C313.68748454 372.1063682 311.98507644 375.02564608 310.28540039 377.9465332 C305.29645936 386.51515352 300.24305825 395.04477527 295.1784668 403.56884766 C291.65324922 409.50681487 288.1434659 415.45302714 284.6640625 421.41796875 C276.77376327 434.94224056 268.79269462 448.38992857 260.46679688 461.65283203 C258.98091107 464.03054611 257.51186663 466.41795821 256.046875 468.80859375 C255.35259399 469.93624146 255.35259399 469.93624146 254.64428711 471.08666992 C253.78220723 472.48701635 252.92342322 473.88939939 252.06860352 475.29418945 C249.2259357 479.88703215 249.2259357 479.88703215 247 481 C241.2137273 466.603483 235.51645183 452.17308042 229.85098267 437.7286377 C227.4255577 431.54507914 224.99796665 425.36237113 222.5703125 419.1796875 C222.09038345 417.95733398 221.61045441 416.73498047 221.11598206 415.47558594 C217.02655237 405.06241475 212.92320981 394.65478568 208.8125 384.25 C208.20496841 382.71168111 207.59746477 381.17335119 206.98999023 379.63500977 C203.76983912 371.48056868 203.76983912 371.48056868 200.54833984 363.32666016 C192.23079187 342.26946496 184.10584369 321.13938201 176 300 C175.34 300 174.68 300 174 300 C172.69901671 301.41334972 172.69901671 301.41334972 171.41796875 303.3046875 C170.90492188 304.02398437 170.391875 304.74328125 169.86328125 305.484375 C169.03376953 306.66773438 169.03376953 306.66773438 168.1875 307.875 C167.0040792 309.5391855 165.82048061 311.20324458 164.63671875 312.8671875 C163.72865479 314.15061035 163.72865479 314.15061035 162.80224609 315.45996094 C160.05996352 319.32486312 157.27967226 323.16194993 154.5 327 C153.41512015 328.50112546 152.33048555 330.00242819 151.24609375 331.50390625 C150.70968262 332.24656738 150.17327148 332.98922852 149.62060547 333.75439453 C148.00717749 335.99005445 146.39589422 338.22724516 144.78515625 340.46484375 C139.23195352 348.17463006 133.64560532 355.8575593 128 363.5 C119.98428252 374.35139843 112.06726391 385.27321075 104.24975586 396.26831055 C99.78121983 402.55072486 95.25127611 408.78639416 90.6875 415 C90.1004126 415.80171631 89.5133252 416.60343262 88.90844727 417.42944336 C85.73269544 421.74104472 82.47814138 425.9280296 79 430 C77.07698011 427.11547016 76.47396778 425.43674367 75.70654297 422.13427734 C75.4719487 421.13864273 75.23735443 420.14300812 74.99565125 419.11720276 C74.62268669 417.49297646 74.62268669 417.49297646 74.2421875 415.8359375 C73.978116 414.70876816 73.71404449 413.58159882 73.44197083 412.42027283 C72.58079917 408.73977852 71.72793383 405.05741122 70.875 401.375 C69.98746879 397.57237283 69.09783304 393.77024227 68.20799255 389.96815491 C67.61939004 387.45280115 67.03146751 384.93728818 66.44422913 382.4216156 C64.25151232 373.03678142 61.9896626 363.67095676 59.6875 354.3125 C56.93710261 343.08926864 54.38044996 331.83057069 51.90493774 320.54443359 C48.51200976 305.09555325 44.93431295 289.69021804 41.33643341 274.28805923 C40.88359006 272.34927709 40.43114059 270.41040297 39.97869873 268.4715271 C36.28214333 252.63733678 32.5356843 236.81593301 28.72503662 221.00881958 C27.7661459 217.02953208 26.81028732 213.04951864 25.85429382 209.0695343 C22.40346547 194.70564281 18.94248705 180.34419265 15.47844696 165.98348236 C15.15726526 164.6519696 14.83610363 163.32045199 14.51496124 161.98892975 C7.11915058 131.32496022 -0.2866659 100.66405939 -7.9375 70.0625 C-8.19306671 69.03932678 -8.44863342 68.01615356 -8.71194458 66.9619751 C-9.41956611 64.13177794 -10.12915707 61.3020851 -10.83984375 58.47265625 C-11.04632538 57.6479332 -11.25280701 56.82321014 -11.46554565 55.97349548 C-12.22882391 52.94575733 -13.01217645 49.96347066 -14 47 C-14.83917969 47.76570313 -14.83917969 47.76570313 -15.6953125 48.546875 C-20.64513343 53.03513706 -25.65581361 57.42733681 -30.75 61.75 C-36.35731358 66.51683172 -41.79938054 71.43421379 -47.14892578 76.48852539 C-50.21018664 79.37544382 -53.31880568 82.07928004 -56.625 84.6875 C-63.63406969 90.81975826 -65.35473396 102.04221499 -67.9140625 110.6484375 C-68.28086624 111.86844955 -68.64766998 113.08846161 -69.02558899 114.34544373 C-70.02238151 117.66112148 -71.01359913 120.97844188 -72.00382614 124.29608536 C-73.05844077 127.82561861 -74.11850109 131.35351584 -75.17797852 134.8815918 C-77.1520906 141.45816076 -79.12185421 148.03602238 -81.08959866 154.61449909 C-84.33506652 165.46422711 -87.58883573 176.31146748 -90.84194946 187.15890503 C-91.57632625 189.60800731 -92.31051614 192.05716564 -93.04452515 194.50637817 C-98.97244812 214.28619662 -104.9436497 234.05258027 -110.9375 253.8125 C-111.35525584 255.18975809 -111.77301096 256.56701639 -112.19076538 257.9442749 C-112.39724732 258.62500376 -112.60372927 259.30573261 -112.81646824 260.00708961 C-113.86078084 263.45001998 -114.90503625 266.89296768 -115.94921875 270.3359375 C-116.15615042 271.01824306 -116.36308208 271.70054863 -116.57628441 272.40353012 C-121.27811769 287.90790727 -125.96415967 303.41703783 -130.64369583 318.92815781 C-131.23595152 320.89094217 -131.82848376 322.85364281 -132.42111206 324.8163147 C-133.17212881 327.3039506 -133.92255245 329.79176565 -134.67234802 332.2797699 C-135.39357436 334.66955374 -136.1174454 337.05854123 -136.84413147 339.44667053 C-138.66889077 345.46569411 -140.42352213 351.49426887 -142.07617188 357.56298828 C-142.5890274 359.40492516 -142.5890274 359.40492516 -143.11224365 361.28407288 C-143.75619555 363.60563239 -144.38208954 365.93231149 -144.98590088 368.26463318 C-146.95126436 375.27357641 -149.34672674 379.41668349 -155 384 C-156.230926 385.08133389 -157.46027585 386.16446663 -158.6875 387.25 C-159.35136719 387.82234375 -160.01523437 388.3946875 -160.69921875 388.984375 C-163.5077302 391.44480269 -166.25461879 393.96974992 -169 396.5 C-172.90963279 400.10032448 -176.85866939 403.64418014 -180.875 407.125 C-183.61823418 409.54550075 -186.30884568 412.02200642 -189 414.5 C-192.30028923 417.53888018 -195.60949283 420.56156045 -199 423.5 C-202.87817013 426.86322638 -206.65527811 430.33335671 -210.43310547 433.80810547 C-215.25584891 438.24223628 -220.1234112 442.6251824 -225 447 C-226.66692647 448.49971128 -228.33359149 449.99971321 -230 451.5 C-233.33333333 454.5 -236.66666667 457.5 -240 460.5 C-240.82757813 461.24507812 -241.65515625 461.99015625 -242.5078125 462.7578125 C-244.14739879 464.23292618 -245.78799655 465.70691652 -247.4296875 467.1796875 C-252.49461995 471.72679938 -257.52633292 476.3085477 -262.53857422 480.91357422 C-266.47792546 484.5298002 -270.44926265 488.10882405 -274.4296875 491.6796875 C-277.34428474 494.31079807 -280.23537409 496.96654417 -283.125 499.625 C-286.99362895 503.18258341 -290.90334264 506.68289695 -294.875 510.125 C-297.61824246 512.54550806 -300.30848575 515.0223892 -303 517.5 C-310.33514976 524.23643238 -310.33514976 524.23643238 -313.5625 527.125 C-314.16191406 527.66382813 -314.76132812 528.20265625 -315.37890625 528.7578125 C-317 530 -317 530 -320 531 C-320.46672119 530.05870239 -320.46672119 530.05870239 -320.94287109 529.09838867 C-326.47177339 517.96044035 -332.02521627 506.84297213 -337.85693359 495.86010742 C-342.14076383 487.77578094 -346.31747125 479.63702039 -350.5 471.5 C-355.82528838 461.14322331 -361.17800576 450.80330152 -366.62109375 440.5078125 C-370.94284245 432.33172857 -375.20246716 424.12293103 -379.4765625 415.921875 C-380.96231645 413.07227512 -382.44960542 410.22348267 -383.9375 407.375 C-388.17648288 399.25833926 -392.4127211 391.14039918 -396.62109375 383.0078125 C-396.92859558 382.41379639 -397.23609741 381.81978027 -397.55291748 381.20776367 C-399.04237739 378.3303113 -400.53072808 375.45229639 -402.01708984 372.57324219 C-405.4448177 365.94766977 -405.4448177 365.94766977 -408.97412109 359.37597656 C-409.46104683 358.48387985 -409.46104683 358.48387985 -409.95780945 357.57376099 C-410.86929771 355.90919584 -411.78642076 354.24771984 -412.70385742 352.58642578 C-414 350 -414 350 -414 348 C-411.43873936 346.705826 -408.87606642 345.41459216 -406.3125 344.125 C-405.59126953 343.76019531 -404.87003906 343.39539063 -404.12695312 343.01953125 C-403.06831055 342.48779297 -403.06831055 342.48779297 -401.98828125 341.9453125 C-401.34415283 341.62062988 -400.70002441 341.29594727 -400.03637695 340.96142578 C-397.72746557 339.87132951 -395.3780786 338.92811875 -393 338 C-392.75102966 338.48985382 -392.50205933 338.97970764 -392.24554443 339.48440552 C-378.17366302 367.36670105 -378.17366302 367.36670105 -363.42138672 394.89038086 C-358.72159029 403.39417473 -354.30492121 412.04114097 -349.875 420.6875 C-349.47986206 421.458591 -349.08472412 422.22968201 -348.6776123 423.0241394 C-347.13562098 426.03359274 -345.59376121 429.04311339 -344.05224609 432.05281067 C-341.39539357 437.23713472 -338.71850547 442.41018104 -336 447.5625 C-335.64615234 448.23361816 -335.29230469 448.90473633 -334.92773438 449.59619141 C-332.5099543 454.16944523 -330.07543941 458.7337269 -327.63983154 463.29750061 C-325.96957685 466.42907418 -324.30253627 469.56235369 -322.63574219 472.69577026 C-321.39053304 475.03334059 -320.14061935 477.3683551 -318.890625 479.70336914 C-318.12215387 481.14716942 -317.35391433 482.59109299 -316.5859375 484.03515625 C-316.22398285 484.70816772 -315.8620282 485.3811792 -315.48910522 486.07458496 C-313 490.77243818 -313 490.77243818 -313 493 C-305.36336234 487.21412393 -298.43492652 480.82347539 -291.47265625 474.2578125 C-288.38618724 471.34951954 -285.23388009 468.53569202 -282.01953125 465.76953125 C-279.30513807 463.3911558 -276.65427613 460.94491095 -274 458.5 C-270.09025645 454.89979545 -266.14133329 451.35582218 -262.125 447.875 C-259.38176582 445.45449925 -256.69115432 442.97799358 -254 440.5 C-250.69971077 437.46111982 -247.39050717 434.43843955 -244 431.5 C-240.12182987 428.13677362 -236.34472189 424.66664329 -232.56689453 421.19189453 C-226.94591004 416.02384427 -221.26276666 410.92596494 -215.578125 405.828125 C-210.9855185 401.70355484 -206.41823413 397.55375029 -201.875 393.375 C-198.00767416 389.81871262 -194.09973052 386.31918198 -190.12890625 382.87890625 C-185.86599902 379.1165973 -181.69223145 375.24718902 -177.54647827 371.35624695 C-176 370 -176 370 -174.31607056 368.84065247 C-168.21636053 364.44033796 -166.85542753 359.05451277 -164.93359375 352.015625 C-164.39335801 350.15723913 -163.85312107 348.29885361 -163.31284237 346.44048023 C-162.73652786 344.44050909 -162.17235103 342.43747159 -161.6116333 340.43307495 C-160.41684067 336.16322132 -159.18838765 331.90349709 -157.95458984 327.64477539 C-156.64409875 323.11543589 -155.33605314 318.58545325 -154.03936768 314.05213928 C-150.95779055 303.27995955 -147.80854531 292.52963 -144.60546875 281.79296875 C-144.26893469 280.66473474 -144.26893469 280.66473474 -143.92560196 279.51370811 C-142.78616922 275.69491841 -141.64562375 271.87646212 -140.50463867 268.05813599 C-138.17593879 260.26253555 -135.85998394 252.46314196 -133.54296875 244.6640625 C-133.31245693 243.88835718 -133.08194511 243.11265186 -132.84444809 242.31344032 C-128.13032674 226.44972649 -123.43130122 210.58156068 -118.73843384 194.71154785 C-117.6610163 191.06805181 -116.5830897 187.4247066 -115.505023 183.78140259 C-111.20146609 169.23677878 -106.90629248 154.68975548 -102.63121033 140.13673401 C-100.93715853 134.37031955 -99.23992648 128.6048425 -97.54194736 122.8395834 C-96.15964449 118.14508534 -94.78157702 113.44937221 -93.40678215 108.75267029 C-92.55658485 105.85191322 -91.70232773 102.95236315 -90.84698486 100.05311966 C-90.45395376 98.71787931 -90.06257884 97.38215006 -89.67306519 96.04587936 C-83.26683743 74.07851374 -83.26683743 74.07851374 -75.25 67.3125 C-74.6223877 66.7570752 -73.99477539 66.20165039 -73.34814453 65.62939453 C-71.57932889 64.0692671 -69.7929257 62.53228247 -68 61 C-66.62446744 59.79227296 -65.24934629 58.5840768 -63.875 57.375 C-63.27042969 56.85421875 -62.66585938 56.3334375 -62.04296875 55.796875 C-59.90725101 53.91842345 -57.81955486 51.99204356 -55.73388672 50.05834961 C-51.34607178 45.99127328 -46.91834553 42.06142103 -42.25 38.3125 C-38.19759983 35.05081206 -34.51037584 31.62109138 -30.88671875 27.89453125 C-28.41000639 25.40756335 -25.78323579 23.129457 -23.125 20.83984375 C-19.02619319 17.29106065 -15.02460578 13.63240281 -11 10 C-8.31152185 7.58297262 -5.62265455 5.16637913 -2.93359375 2.75 C-1.93983036 1.85059394 -0.94775971 0.94775971 0 0 Z " fill="#0C274E" transform="translate(503,138)"/>
<path d="M0 0 C2.89241381 1.00016067 5.65720697 2.22402891 8.4375 3.5 C9.2202832 3.85529785 10.00306641 4.2105957 10.80957031 4.57666016 C24.12889382 10.73127293 36.32450811 18.13087046 48 27 C49.32837891 27.99 49.32837891 27.99 50.68359375 29 C67.63869383 42.21310691 81.69789871 58.2805374 93.0625 76.4375 C93.54066162 77.19546875 94.01882324 77.9534375 94.51147461 78.734375 C99.07255728 86.24145204 99.07255728 86.24145204 99 91 C98.01982699 94.38714103 96.64049552 97.54149717 95.1875 100.75 C94.77951172 101.67159912 94.37152344 102.59319824 93.95117188 103.54272461 C86.18365654 120.75805683 76.93839492 135.86413224 64.04296875 149.74609375 C62.62627044 151.30906683 61.26831026 152.92652667 59.9609375 154.58203125 C57.0268046 158.20001584 53.55811558 161.0128658 50 164 C49.195625 164.69222656 48.39125 165.38445312 47.5625 166.09765625 C18.7934548 190.37153814 18.7934548 190.37153814 7.55859375 189.8359375 C-16.60367461 184.16005887 -39.8367753 168.60158766 -57.7578125 152.0546875 C-59.69106313 150.28310243 -61.66289334 148.60217659 -63.6875 146.9375 C-75.10181657 137.2084348 -84.48295223 123.46688044 -92.375 110.8125 C-92.95580322 109.91422485 -92.95580322 109.91422485 -93.54833984 108.99780273 C-95.1429626 106.34172403 -95.99838127 104.37824357 -96.01171875 101.26171875 C-94.48985691 96.35533018 -92.51027776 91.69674503 -90.4375 87 C-89.9842334 85.97124756 -89.5309668 84.94249512 -89.06396484 83.88256836 C-80.8682195 65.54952491 -69.89905357 49.50336024 -56 35 C-54.81083984 33.71609375 -54.81083984 33.71609375 -53.59765625 32.40625 C-42.04101513 20.31087824 -17.69278247 -3.54209859 0 0 Z " fill="#0B284F" transform="translate(240,220)"/>
<path d="M0 0 C0.98779449 0.00456207 0.98779449 0.00456207 1.99554443 0.00921631 C21.19827063 0.1402989 37.53491158 4.48822219 52.25 17.4375 C53.00023437 18.08203125 53.75046875 18.7265625 54.5234375 19.390625 C67.49689845 31.34569141 75.07809829 49.77955063 76.5715332 67.18481445 C76.72286829 71.14688251 76.77681199 75.09845017 76.75 79.0625 C76.74823761 79.7617157 76.74647522 80.4609314 76.74465942 81.18133545 C76.67950965 92.80849873 75.58547532 103.55959498 71.25 114.4375 C70.99299316 115.08299805 70.73598633 115.72849609 70.47119141 116.39355469 C62.74613551 134.95455455 48.61478853 147.77392338 30.25 155.4375 C10.89261155 163.40680243 -14.30537443 161.76618946 -33.4296875 153.9296875 C-51.72334374 145.74715913 -63.28907737 131.61998064 -70.75 113.4375 C-78.96411746 90.54378007 -78.66059344 63.48924156 -68.72045898 41.22387695 C-60.16958815 23.33075539 -45.25994236 10.30472808 -26.75 3.4375 C-17.80587081 0.57316813 -9.35610883 -0.0749631 0 0 Z " fill="#0C284E" transform="translate(515.75,598.5625)"/>
<path d="M0 0 C3.27648203 2.6503718 4.42943226 6.07359542 5.86328125 9.90234375 C6.13113937 10.59781815 6.3989975 11.29329254 6.67497253 12.00984192 C7.56146971 14.3163279 8.43678546 16.62690101 9.3125 18.9375 C9.94184584 20.57943241 10.57206968 22.22102853 11.203125 23.86230469 C12.50822344 27.25892447 13.80956712 30.65694476 15.10791016 34.05615234 C17.60681636 40.59322519 20.1396047 47.11699893 22.67822266 53.63873291 C23.51658199 55.79260159 24.35401296 57.94682979 25.19140625 60.10107422 C30.70115643 74.26687719 36.25590704 88.41502024 41.8125 102.5625 C42.28044983 103.75446991 42.74839966 104.94643982 43.23052979 106.17453003 C48.19130194 118.80914044 53.16630585 131.43769648 58.19140625 144.046875 C58.9931307 146.06174847 59.79480846 148.07664052 60.59643555 150.09155273 C62.08305248 153.82776306 63.5763468 157.56120862 65.07348633 161.29321289 C65.73413098 162.95188841 66.39454594 164.61065544 67.0546875 166.26953125 C67.50763939 167.39032074 67.50763939 167.39032074 67.96974182 168.53375244 C69.14824146 171.50878158 70 173.76874643 70 177 C70.66 177 71.32 177 72 177 C72.25869873 176.29472168 72.51739746 175.58944336 72.78393555 174.86279297 C74.09931164 171.76620593 75.6869387 169.05630551 77.45703125 166.1953125 C78.15818004 165.0543978 78.85926797 163.9134457 79.56030273 162.77246094 C79.92759491 162.17784058 80.29488708 161.58322021 80.67330933 160.97058105 C86.62089498 151.33501112 92.42259789 141.64159553 97.9375 131.75 C101.44431948 125.46527966 105.00434242 119.25549153 108.875 113.1875 C117.17522294 100.15766469 124.66521513 86.62516101 132.3008728 73.19934082 C133.40292342 71.26177167 134.50584444 69.32470005 135.60888672 67.38769531 C137.01246794 64.92287362 138.41201239 62.45582192 139.80908203 59.98730469 C140.44442871 58.87000977 141.07977539 57.75271484 141.734375 56.6015625 C142.29350586 55.61494629 142.85263672 54.62833008 143.42871094 53.61181641 C144.83143012 51.28019897 146.32082536 49.13787909 148 47 C150.79058063 48.29190732 153.01067907 49.69736435 155.3203125 51.72265625 C155.93293945 52.25665039 156.54556641 52.79064453 157.17675781 53.34082031 C157.81967773 53.90897461 158.46259766 54.47712891 159.125 55.0625 C159.79370117 55.64741211 160.46240234 56.23232422 161.15136719 56.83496094 C164.88219315 60.10594508 168.57727252 63.4138408 172.25 66.75 C175.50010013 69.7007488 178.82617333 72.50297627 182.25 75.25 C186.67933543 78.82850264 190.85694216 82.60005558 195 86.5 C202.00717483 93.0932974 209.26686081 99.26250963 217 105 C217.59425781 104.45472656 218.18851563 103.90945313 218.80078125 103.34765625 C224.17149675 98.46139098 229.66070154 93.78539391 235.3046875 89.21875 C239.30498692 85.9257499 243.16109003 82.47871594 247 79 C251.40458964 80.60071785 253.79727914 83.934782 256.6875 87.4375 C257.43483398 88.31631836 257.43483398 88.31631836 258.19726562 89.21289062 C260.34784554 91.78366525 261.93090515 93.79271544 263 97 C258.27754291 102.01257391 253.18520789 106.36456664 247.82421875 110.6796875 C245.14206334 112.88328406 242.56373579 115.16043825 240 117.5 C232.360681 124.44814252 224.33678631 130.90865184 216 137 C215.33355469 136.38253906 214.66710937 135.76507812 213.98046875 135.12890625 C209.27205593 130.80243461 204.5467545 126.57315377 199.5625 122.5625 C195.56773566 119.34054925 191.75468333 115.99322017 188 112.5 C183.48216043 108.30093919 178.82560711 104.34111228 174.015625 100.48046875 C171.65453686 98.538382 169.34347767 96.5671633 167.046875 94.55078125 C166.02654175 93.65528564 166.02654175 93.65528564 164.9855957 92.74169922 C163.63672277 91.55345616 162.29140404 90.36116431 160.94995117 89.16455078 C157.92481899 86.08494808 157.92481899 86.08494808 154 85 C152.41280072 87.19670363 152.41280072 87.19670363 150.796875 90.0625 C149.83201172 91.70412109 149.83201172 91.70412109 148.84765625 93.37890625 C148.14830315 94.58585966 147.44908802 95.79289303 146.75 97 C146.02539801 98.23866666 145.30012976 99.47694378 144.57421875 100.71484375 C142.72369256 103.87454817 140.88175044 107.03915756 139.04272461 110.20556641 C137.49548209 112.86822913 135.94297762 115.52781411 134.390625 118.1875 C132.68748454 121.1063682 130.98507644 124.02564608 129.28540039 126.9465332 C124.29645936 135.51515352 119.24305825 144.04477527 114.1784668 152.56884766 C110.65324922 158.50681487 107.1434659 164.45302714 103.6640625 170.41796875 C95.77376327 183.94224056 87.79269462 197.38992857 79.46679688 210.65283203 C77.98091107 213.03054611 76.51186663 215.41795821 75.046875 217.80859375 C74.584021 218.56035889 74.12116699 219.31212402 73.64428711 220.08666992 C72.78220723 221.48701635 71.92342322 222.88939939 71.06860352 224.29418945 C68.2259357 228.88703215 68.2259357 228.88703215 66 230 C60.2137273 215.603483 54.51645183 201.17308042 48.85098267 186.7286377 C46.4255577 180.54507914 43.99796665 174.36237113 41.5703125 168.1796875 C41.09038345 166.95733398 40.61045441 165.73498047 40.11598206 164.47558594 C36.02655237 154.06241475 31.92320981 143.65478568 27.8125 133.25 C27.20496841 131.71168111 26.59746477 130.17335119 25.98999023 128.63500977 C22.76983912 120.48056868 22.76983912 120.48056868 19.54833984 112.32666016 C11.23079187 91.26946496 3.10584369 70.13938201 -5 49 C-5.66 49 -6.32 49 -7 49 C-8.30098329 50.41334972 -8.30098329 50.41334972 -9.58203125 52.3046875 C-10.09507812 53.02398437 -10.608125 53.74328125 -11.13671875 54.484375 C-11.68972656 55.27328125 -12.24273438 56.0621875 -12.8125 56.875 C-13.9959208 58.5391855 -15.17951939 60.20324458 -16.36328125 61.8671875 C-16.96865723 62.72280273 -17.5740332 63.57841797 -18.19775391 64.45996094 C-20.94003648 68.32486312 -23.72032774 72.16194993 -26.5 76 C-27.58487985 77.50112546 -28.66951445 79.00242819 -29.75390625 80.50390625 C-30.55852295 81.61789795 -30.55852295 81.61789795 -31.37939453 82.75439453 C-32.99282251 84.99005445 -34.60410578 87.22724516 -36.21484375 89.46484375 C-41.76804648 97.17463006 -47.35439468 104.8575593 -53 112.5 C-61.01571748 123.35139843 -68.93273609 134.27321075 -76.75024414 145.26831055 C-81.21878017 151.55072486 -85.74872389 157.78639416 -90.3125 164 C-90.8995874 164.80171631 -91.4866748 165.60343262 -92.09155273 166.42944336 C-95.26730456 170.74104472 -98.52185862 174.9280296 -102 179 C-105.25219537 174.12170694 -106.20928851 168.57943884 -107.625 162.9375 C-107.96917969 161.74705078 -108.31335938 160.55660156 -108.66796875 159.33007812 C-110.81197106 150.5858176 -110.81197106 150.5858176 -108.53369141 146.13623047 C-106.48496416 143.5903467 -104.31569923 141.30292404 -102 139 C-101.09755833 137.84047979 -100.22009596 136.66053731 -99.3828125 135.453125 C-97.7761647 133.17379768 -96.16655246 130.89672108 -94.5546875 128.62109375 C-94.12897461 128.01765137 -93.70326172 127.41420898 -93.26464844 126.79248047 C-83.06192491 112.33140013 -72.58701036 98.07252995 -61.9375 83.9375 C-57.20693367 77.65648115 -52.58496817 71.30275057 -47.99365234 64.91943359 C-42.31320602 57.0281461 -36.54029066 49.20628736 -30.76171875 41.38671875 C-29.01512757 39.02049434 -27.27250623 36.65140239 -25.53125 34.28125 C-17.0931887 22.79950606 -8.5681544 11.3849578 0 0 Z " fill="#2671AF" transform="translate(684,389)"/>
<path d="M0 0 C93.72769435 0 93.72769435 0 107.9375 13.25 C117.58935827 23.63623879 119.59993295 35.58638666 119.3125 49.25 C118.87434246 58.46591361 115.91321866 67.62447612 109 74 C105.54421138 76.54580711 101.91588079 78.80455466 98.2421875 81.01953125 C95.69133077 82.57770518 93.36592439 84.18843849 91 86 C91.42265137 86.64179199 91.84530273 87.28358398 92.28076172 87.94482422 C96.95343672 95.14869229 101.1116967 102.5374319 105.125 110.125 C105.7713977 111.33981375 106.41804937 112.55449239 107.06494141 113.76904297 C120.79243085 139.58486169 120.79243085 139.58486169 127 152 C115.12 152 103.24 152 91 152 C89.25332031 148.4834375 87.50664063 144.966875 85.70703125 141.34375 C84.00349729 137.92106296 82.29856877 134.49907401 80.59350586 131.07714844 C79.41366122 128.70743169 78.2352567 126.33699735 77.05834961 123.96582031 C75.3617396 120.54820929 73.65988483 117.13325355 71.95703125 113.71875 C71.43599319 112.66635132 70.91495514 111.61395264 70.37812805 110.52966309 C67.78608271 105.3447895 65.10865093 100.35480025 61.88432312 95.5333252 C61 94 61 94 61 92 C51.1 92 41.2 92 31 92 C31 112.13 31 132.26 31 153 C20.77 153 10.54 153 0 153 C0 102.51 0 52.02 0 0 Z " fill="#0B274D" transform="translate(613,602)"/>
<path d="M0 0 C1.04285156 0.4125 2.08570313 0.825 3.16015625 1.25 C16.1213704 7.01782223 26.07317884 17.11282529 31.3125 30.3046875 C33.4500957 36.73231902 34 40.98179768 34 48 C23.77 48 13.54 48 3 48 C1.68 44.7 0.36 41.4 -1 38 C-4.97670019 30.86936518 -10.30288269 26.18054846 -18.0078125 23.54296875 C-28.93880467 20.56373755 -39.71595056 21.14604389 -50 26 C-61.37159569 32.5955255 -66.17244085 43.88180328 -70 56 C-74.8161528 74.74057383 -72.49127253 94.61129318 -63.17578125 111.515625 C-58.18446557 119.90940241 -50.62733245 123.79320296 -41.8125 127.25 C-30.74289102 129.427628 -19.52360569 128.38146754 -9.65234375 122.6328125 C-3.04708115 117.51659754 -1.20876978 111.81628673 3 104 C13.56 104 24.12 104 35 104 C30.70993843 121.16024626 24.50079601 134.02281079 9.5 143.9375 C-3.73622595 151.6539381 -16.43291685 155.5831313 -31.8125 155.4375 C-32.95106445 155.42920166 -34.08962891 155.42090332 -35.26269531 155.41235352 C-55.64452818 155.0045427 -73.25711467 147.1111742 -87.5625 132.5625 C-104.85094749 112.64451592 -106.30988548 86.13297026 -105 61 C-103.43133921 46.08694131 -97.2252589 30.01341273 -87 19 C-86.27167969 18.18144531 -85.54335938 17.36289062 -84.79296875 16.51953125 C-64.66767963 -4.97128637 -27.3139636 -11.36601866 0 0 Z " fill="#0C284E" transform="translate(391,603)"/>
<path d="M0 0 C12.19860657 8.88000209 17.99883996 22.7836208 20.36328125 37.33984375 C21.95586543 56.84507524 20.13989893 75.99286505 7.30078125 91.58984375 C0.40241411 98.92730294 -8.21537733 102.91081656 -18.203125 103.578125 C-32.12343318 103.83666445 -42.47554421 101.15016405 -52.7265625 91.33984375 C-63.99501477 79.58875758 -67.22214584 64.49095811 -67.13671875 48.65234375 C-67.13099854 47.42008057 -67.12527832 46.18781738 -67.11938477 44.91821289 C-66.82211031 29.70316578 -63.07637041 16.4750711 -52.50390625 5.03125 C-38.6655111 -8.10799278 -16.16243 -10.17634482 0 0 Z " fill="#FDFEFE" transform="translate(539.63671875,629.66015625)"/>
<path d="M0 0 C1.20615967 -0.02247803 2.41231934 -0.04495605 3.6550293 -0.06811523 C11.8169052 -0.04591921 17.37827925 0.97555109 23.671875 6.26171875 C31.81096787 15.87148929 34.8163872 26.52573003 34.80078125 38.99609375 C34.80506638 39.7841188 34.8093515 40.57214386 34.81376648 41.38404846 C34.81946947 43.04370167 34.82004007 44.70337985 34.81567383 46.36303711 C34.81254651 48.83819031 34.83590931 51.31210614 34.86132812 53.78710938 C34.90341419 64.94741676 33.67236099 75.49678978 31.5 86.4375 C29.17925645 83.55520609 26.89146291 80.65999176 24.6875 77.6875 C3.28622225 49.07499535 -23.23908484 25.44897379 -57.5 13.4375 C-54.64844239 11.09649761 -52.16008334 9.80062259 -48.640625 8.71875 C-47.69872314 8.42750244 -46.75682129 8.13625488 -45.78637695 7.83618164 C-40.70107121 6.33107507 -35.6121681 4.84906222 -30.5 3.4375 C-29.41549561 3.13416748 -29.41549561 3.13416748 -28.30908203 2.82470703 C-18.96303184 0.32297439 -9.62254502 0.11803392 0 0 Z " fill="#0C274E" transform="translate(314.5,195.5625)"/>
<path d="M0 0 C2.89352729 3.52002762 5.47554404 7.1460349 8 10.9375 C13.11864054 18.44131704 18.88797138 25.28967299 25 32 C25.47276367 32.51949219 25.94552734 33.03898437 26.43261719 33.57421875 C41.61077762 50.00930408 60.26358636 62.39909011 80.63085938 71.4387207 C85.90035916 73.80071832 85.90035916 73.80071832 87 76 C78.78048807 78.99784889 70.62909217 81.46392166 62.0625 83.25 C61.28285889 83.41274414 60.50321777 83.57548828 59.69995117 83.74316406 C44.67117092 86.76205968 23.75481434 90.43823783 10.17578125 81.828125 C1.19261398 74.28032916 -2.47057582 63.36669525 -4 52 C-4.3035781 46.80974741 -4.3373513 41.63398933 -4.3125 36.4375 C-4.31200653 35.73122467 -4.31151306 35.02494934 -4.31100464 34.29727173 C-4.2859411 22.59525402 -3.73333936 11.20001809 0 0 Z " fill="#0B274E" transform="translate(138,345)"/>
<path d="M0 0 C4.27649716 1.58026752 7.64609147 4.80090505 11.05078125 7.7578125 C12.35015625 6.489375 12.35015625 6.489375 13.67578125 5.1953125 C16.16198223 3.1361531 16.74425059 2.76406823 20.11328125 2.6953125 C23.38525373 3.87879191 25.49125464 5.42412647 28.05078125 7.7578125 C27.54779337 12.15895647 25.96305394 14.46976269 23.05078125 17.7578125 C23.68886719 18.25410156 24.32695312 18.75039063 24.984375 19.26171875 C31.69047454 24.77515784 31.69047454 24.77515784 33.42578125 29.5078125 C33.05078125 32.7578125 33.05078125 32.7578125 30.92578125 35.2578125 C27.50370166 37.04324533 26.65274782 36.87973651 23.05078125 35.7578125 C20.59375 34.12890625 20.59375 34.12890625 18.23828125 32.1953125 C17.44808594 31.55464844 16.65789062 30.91398437 15.84375 30.25390625 C15.25207031 29.76019531 14.66039062 29.26648438 14.05078125 28.7578125 C10.99511664 31.72088121 8.07942297 34.77501411 5.23828125 37.9453125 C4.33142578 38.95658203 4.33142578 38.95658203 3.40625 39.98828125 C1.84808112 41.65092898 1.84808112 41.65092898 2.05078125 43.7578125 C4.03351056 45.53592211 4.03351056 45.53592211 6.48828125 47.3203125 C11.03812302 50.74515427 11.03812302 50.74515427 12.05078125 51.7578125 C12.50584817 57.90121594 12.50584817 57.90121594 10.98828125 60.7578125 C8.58697232 61.99719775 6.74513249 62.03194495 4.1015625 61.55078125 C-0.15826055 59.90364967 -3.53522213 56.72280276 -6.94921875 53.7578125 C-14.30473712 60.60698712 -14.30473712 60.60698712 -19.94921875 68.7578125 C-19.376875 69.01949219 -18.80453125 69.28117187 -18.21484375 69.55078125 C-15.78306309 70.84633336 -13.81313347 72.30480225 -11.69921875 74.0703125 C-10.9928125 74.64394531 -10.28640625 75.21757812 -9.55859375 75.80859375 C-7.94921875 77.7578125 -7.94921875 77.7578125 -7.6171875 80.33984375 C-7.94921875 82.7578125 -7.94921875 82.7578125 -9.51171875 85.1328125 C-11.94921875 86.7578125 -11.94921875 86.7578125 -15.13671875 86.9453125 C-20.34599721 85.32275036 -23.87085519 82.29979264 -27.94921875 78.7578125 C-28.71234375 79.5209375 -29.47546875 80.2840625 -30.26171875 81.0703125 C-31.14859375 81.9571875 -32.03546875 82.8440625 -32.94921875 83.7578125 C-33.46484375 84.3765625 -33.98046875 84.9953125 -34.51171875 85.6328125 C-35.94921875 86.7578125 -35.94921875 86.7578125 -37.76171875 86.7578125 C-40.9906463 85.28173133 -43.29443847 83.11091321 -45.94921875 80.7578125 C-45.49222597 75.73089187 -42.95680127 72.60884989 -39.94921875 68.7578125 C-40.58730469 68.33371094 -41.22539062 67.90960938 -41.8828125 67.47265625 C-48.63723017 62.67817881 -48.63723017 62.67817881 -50.19921875 58.0703125 C-49.94921875 54.7578125 -49.94921875 54.7578125 -48.88671875 52.3203125 C-46.94921875 50.7578125 -46.94921875 50.7578125 -44.32421875 50.0703125 C-39.8459736 50.98254762 -37.40188088 53.26533977 -34 56.2265625 C-31.97514211 58.05695712 -31.97514211 58.05695712 -28.94921875 57.7578125 C-26.5711842 55.45258499 -26.5711842 55.45258499 -24.26171875 52.5078125 C-23.04935547 51.04601562 -23.04935547 51.04601562 -21.8125 49.5546875 C-19.57959746 46.76311034 -19.57959746 46.76311034 -19.94921875 42.7578125 C-21.90261487 40.9888371 -21.90261487 40.9888371 -24.38671875 39.4453125 C-27.79100092 36.94311141 -28.80162868 36.1724703 -30.26171875 32.0703125 C-29.94921875 28.7578125 -29.94921875 28.7578125 -28.32421875 26.3203125 C-25.4560416 24.43335385 -24.32769723 24.32315445 -20.94921875 24.7578125 C-18.37890625 26.47265625 -18.37890625 26.47265625 -15.82421875 28.6953125 C-12.23748773 31.83032309 -12.23748773 31.83032309 -7.94921875 33.7578125 C-7.70429688 33.20609375 -7.459375 32.654375 -7.20703125 32.0859375 C-5.69183761 29.28141759 -3.83837749 26.97678127 -1.82421875 24.5078125 C-1.09976563 23.61578125 -0.3753125 22.72375 0.37109375 21.8046875 C0.92539063 21.12921875 1.4796875 20.45375 2.05078125 19.7578125 C0.99890625 18.7059375 0.99890625 18.7059375 -0.07421875 17.6328125 C-0.5228125 17.17390625 -0.97140625 16.715 -1.43359375 16.2421875 C-2.94197952 14.72567742 -2.94197952 14.72567742 -4.65234375 13.3359375 C-6.3230813 11.88380113 -7.69878245 10.58707268 -8.94921875 8.7578125 C-9.01171875 5.0078125 -9.01171875 5.0078125 -7.94921875 1.7578125 C-4.82552036 -0.32465309 -3.62861366 -0.60606395 0 0 Z " fill="#FAFBFC" transform="translate(253.94921875,264.2421875)"/>
<path d="M0 0 C9.0646875 -0.12375 9.0646875 -0.12375 18.3125 -0.25 C20.19622314 -0.28641602 22.07994629 -0.32283203 24.02075195 -0.36035156 C43.90773287 -0.58669145 43.90773287 -0.58669145 51.0090332 5.80957031 C56.10177697 11.3339547 56.3635615 16.35788714 56.265625 23.703125 C55.89740324 28.27340686 54.99638045 31.49223729 52 35 C44.71732894 41.17714225 37.7152005 43.3204463 28.3203125 43.1953125 C27.59900146 43.19329834 26.87769043 43.19128418 26.13452148 43.18920898 C23.46461541 43.17882024 20.79480067 43.15089814 18.125 43.125 C9.153125 43.063125 9.153125 43.063125 0 43 C0 28.81 0 14.62 0 0 Z " fill="#FBFCFC" transform="translate(644,627)"/>
<path d="M0 0 C10.56 0 21.12 0 32 0 C31.34 1.32 30.68 2.64 30 4 C30 3.34 30 2.68 30 2 C20.1 2 10.2 2 0 2 C0 1.34 0 0.68 0 0 Z " fill="#2C3551" transform="translate(394,707)"/>
<path d="M0 0 C2.7710688 2.34591852 3.52059284 4.14776201 4.1875 7.6875 C4.34605469 8.49574219 4.50460937 9.30398438 4.66796875 10.13671875 C4.77753906 10.75160156 4.88710938 11.36648438 5 12 C4.360625 11.195625 3.72125 10.39125 3.0625 9.5625 C1.59396498 7.7249496 1.59396498 7.7249496 0 6 C-2.31 7.65 -4.62 9.3 -7 11 C-5.22054913 6.95579349 -2.60470327 3.53921513 0 0 Z " fill="#1B5897" transform="translate(684,389)"/>
<path d="M0 0 C3.18111969 3.18111969 4.16118686 5.35039391 5.75 9.5 C6.42289063 11.21703125 6.42289063 11.21703125 7.109375 12.96875 C8 16 8 16 7 19 C5.5393715 16.35261084 5 15.10551666 5 12 C4.34 12 3.68 12 3 12 C2.01 8.04 1.02 4.08 0 0 Z " fill="#185A99" transform="translate(689,402)"/>
<path d="M0 0 C4.2026393 2.63886654 7.56638098 5.36440339 11 9 C7.00499382 7.6302836 4.19990508 5.74277578 1 3 C0.01 3.99 -0.98 4.98 -2 6 C-2.66 5.67 -3.32 5.34 -4 5 C-2.68 3.35 -1.36 1.7 0 0 Z " fill="#0F1839" transform="translate(246,317)"/>
<path d="M0 0 C3.875 1.75 3.875 1.75 5 4 C4.071875 4.28875 3.14375 4.5775 2.1875 4.875 C-1.09791667 5.8875 -1.09791667 5.8875 -4 8 C-2.87548273 5.0280615 -1.77706209 2.66559313 0 0 Z " fill="#1765AB" transform="translate(832,436)"/>
<path d="M0 0 C0.66 0.33 1.32 0.66 2 1 C-0.97 5.95 -0.97 5.95 -4 11 C-4.99 10.67 -5.98 10.34 -7 10 C-6.02223933 8.51990357 -5.0427506 7.04094856 -4.0625 5.5625 C-3.51722656 4.73878906 -2.97195313 3.91507812 -2.41015625 3.06640625 C-1 1 -1 1 0 0 Z " fill="#1A63A4" transform="translate(597,507)"/>
<path d="M0 0 C0.33 0.66 0.66 1.32 1 2 C-0.98 4.64 -2.96 7.28 -5 10 C-5 6.55881664 -4.31035007 4.17242648 -3 1 C-2.01 0.67 -1.02 0.34 0 0 Z " fill="#1A5E9D" transform="translate(668,447)"/>
<path d="M0 0 C1.32 1.65 2.64 3.3 4 5 C3.67 5.66 3.34 6.32 3 7 C2.34 6.67 1.68 6.34 1 6 C0.34 6.99 -0.32 7.98 -1 9 C-0.67 6.03 -0.34 3.06 0 0 Z " fill="#060F30" transform="translate(138,345)"/>
<path d="M0 0 C-2.71182212 2.60334924 -3.89133813 2.99456691 -7.75 3.1875 C-8.8225 3.125625 -9.895 3.06375 -11 3 C-7.72430636 -0.27569364 -4.48909309 -0.12469703 0 0 Z " fill="#081335" transform="translate(286,200)"/>
<path d="M0 0 C0.33 0.66 0.66 1.32 1 2 C-3.75 6.875 -3.75 6.875 -6 8 C-4.55746343 4.63408134 -2.66735273 2.48952921 0 0 Z " fill="#051236" transform="translate(308,618)"/>
<path d="M0 0 C0.33 0.66 0.66 1.32 1 2 C1.99 2.33 2.98 2.66 4 3 C4 5.31 4 7.62 4 10 C1.16625119 6.79663178 0.4794463 4.21912747 0 0 Z " fill="#145A9B" transform="translate(689,461)"/>
<path d="M0 0 C0.33 0.66 0.66 1.32 1 2 C0.06694014 4.71435596 -0.62673377 5.78043163 -3.125 7.25 C-3.74375 7.4975 -4.3625 7.745 -5 8 C-3.8141763 4.62496331 -2.72426311 2.35277269 0 0 Z " fill="#195A98" transform="translate(659,423)"/>
</svg>
